# xmcd CD database file
#
# Track frame offsets:
#	150
#	12800
#	27125
#	40760
#	60387
#	77877
#	92827
#	111482
#	124985
#	139805
#
# Disc length: 2075 seconds
#
# Revision: 2
# Processed by: cddbd v1.4PL0 Copyright (c) Steve Scherf et al.
# Submitted via: CDex 1.50Beta7
#
DISCID=7f08190a
DTITLE=Regina Regina - Regina Regina
DYEAR=1997
DGENRE=Country
TTITLE0=More Than I Wanted To Know
TTITLE1=The Big Bad Broken Heart
TTITLE2=Asking For The Moon
TTITLE3=A Far Cry From Him
TTITLE4=Ticket Out Of Kansas
TTITLE5=Border Town Road
TTITLE6=I Should Be Laughing
TTITLE7=Right Plan, Wrong Man
TTITLE8=Before I Knew About You
TTITLE9=She'll Let That Telephone Ring
EXTD=YEAR: 1997
EXTT0=
EXTT1=
EXTT2=
EXTT3=
EXTT4=
EXTT5=
EXTT6=
EXTT7=
EXTT8=
EXTT9=
PLAYORDER=
